:FULLY-SPECIFIED
:FORCE-ALL-JOINTS-BE-3DOF
:DEGREES
34
root 5.97166 16.9207 -28.0622 10.0712 -1.67037 -2.16016
lfemur -20.2038 1.44032 -19.7716
ltibia 33.8244 -0 0
lfoot -35.6349 4.20884 -0.000570244
ltoes 36.0725 -0 0
rfemur -16.6715 6.75748 19.5389
rtibia 30.2073 -0 0
rfoot -27.2543 -18.876 0.0214562
rtoes 12.7339 -0 0
lowerback -5.60634 2.37966 -0.631504
upperback -1.82261 3.19265 0.572284
thorax 1.20916 1.59894 1.15216
lowerneck -9.57249 -1.5813 2.73462
upperneck -2.83604 -2.37838 0.841882
head 0.684797 -1.19416 -0.273264
lclavicle 7.08792e-14 1.55052e-14 0
lhumerus -41.508 -12.6003 96.5293
lradius 38.8962 -0 0
lwrist 5.77606 0 0
lhand -11.6479 3.61702 -0.00268503
lfingers 7.12502 -0 0
lthumb 14.3963 33.0977 -0.00259701
rclavicle 7.08792e-14 1.55052e-14 0
rhumerus -40.4238 -5.0327 -89.2015
rradius 39.2291 -0 0
rwrist 10.8298 0 0
rhand -27.1752 -19.8978 0.00800354
rfingers 7.12502 -0 0
rthumb -0.589288 -49.8794 0.00767209
35
root 5.96736 16.9209 -28.0635 10.0988 -1.64385 -2.12772
lfemur -20.232 1.41891 -19.7739
ltibia 33.8133 -0 0
lfoot -35.5511 4.21104 -0.000577161
ltoes 35.934 -0 0
rfemur -16.6761 6.74654 19.5311
rtibia 30.1716 -0 0
rfoot -27.2092 -18.932 0.0212331
rtoes 12.3673 -0 0
lowerback -5.6647 2.35485 -0.520465
upperback -1.80228 3.15484 0.480192
thorax 1.27531 1.5793 0.99718
lowerneck -9.56137 -1.56516 2.77313
upperneck -2.87191 -2.36033 0.920919
head 0.672085 -1.18468 -0.254148
lclavicle 7.08792e-14 1.55052e-14 0
lhumerus -41.4925 -12.6873 96.4744
lradius 39.1368 -0 0
lwrist 5.93157 0 0
lhand -11.6869 3.52446 -0.00288336
lfingers 7.12502 -0 0
lthumb 14.3587 33.0078 -0.00278311
rclavicle 7.08792e-14 1.55052e-14 0
rhumerus -40.365 -5.03039 -89.3374
rradius 39.1808 -0 0
rwrist 10.8395 0 0
rhand -27.1466 -19.9373 0.0075467
rfingers 7.12502 -0 0
rthumb -0.561667 -49.9189 0.00723345
36
root 5.96303 16.9205 -28.065 10.1241 -1.61926 -2.09735
lfemur -20.2604 1.39942 -19.7766
ltibia 33.8066 -0 0
lfoot -35.4742 4.21267 -0.00057036
ltoes 35.8024 -0 0
rfemur -16.6865 6.72228 19.523
rtibia 30.148 -0 0
rfoot -27.1708 -18.9705 0.0205248
rtoes 12.0211 -0 0
lowerback -5.71531 2.33267 -0.4193
upperback -1.78386 3.12098 0.39475
thorax 1.33361 1.5618 0.854152
lowerneck -9.5509 -1.55075 2.80976
upperneck -2.90457 -2.34437 0.994298
head 0.660443 -1.17631 -0.236605
lclavicle 7.08792e-14 1.55052e-14 0
lhumerus -41.4775 -12.7699 96.4267
lradius 39.3668 -0 0
lwrist 6.0786 0 0
lhand -11.7235 3.44492 -0.00301183
lfingers 7.12502 -0 0
lthumb 14.3235 32.9308 -0.00290172
rclavicle 7.08792e-14 1.55052e-14 0
rhumerus -40.3125 -5.02788 -89.4621
rradius 39.1354 -0 0
rwrist 10.8473 0 0
rhand -27.1113 -19.9818 0.00694817
rfingers 7.12502 -0 0
rthumb -0.527557 -49.9633 0.0066591
37
root 5.95852 16.9195 -28.0669 10.1467 -1.59694 -2.06944
lfemur -20.2886 1.3821 -19.7797
ltibia 33.8045 -0 0
lfoot -35.4051 4.21369 -0.000547895
ltoes 35.6793 -0 0
rfemur -16.7026 6.68454 19.5147
rtibia 30.1373 -0 0
rfoot -27.1398 -18.9905 0.0192971
rtoes 11.6997 -0 0
lowerback -5.75737 2.3134 -0.329395
upperback -1.76764 3.09156 0.317074
thorax 1.3832 1.54664 0.724966
lowerneck -9.5412 -1.53827 2.84406
upperneck -2.93358 -2.33074 1.06107
head 0.650025 -1.16916 -0.220868
lclavicle 7.08792e-14 1.55052e-14 0
lhumerus -41.4633 -12.8473 96.3868
lradius 39.5833 -0 0
lwrist 6.21533 0 0
lhand -11.7571 3.37966 -0.00304643
lfingers 7.12502 -0 0
lthumb 14.2911 32.8679 -0.00293018
rclavicle 7.08792e-14 1.55052e-14 0
rhumerus -40.267 -5.02524 -89.5742
rradius 39.0935 -0 0
rwrist 10.8529 0 0
rhand -27.0694 -20.0311 0.00622131
rfingers 7.12502 -0 0
rthumb -0.487112 -50.0124 0.00596186
38
root 5.95369 16.9179 -28.0691 10.1663 -1.5772 -2.04439
lfemur -20.3163 1.36724 -19.7832
ltibia 33.8071 -0 0
lfoot -35.3448 4.21407 -0.00050793
ltoes 35.5663 -0 0
rfemur -16.7246 6.63315 19.5063
rtibia 30.14 -0 0
rfoot -27.1166 -18.991 0.0175212
rtoes 11.4074 -0 0
lowerback -5.79009 2.2973 -0.252138
upperback -1.75388 3.06705 0.248278
thorax 1.42319 1.53401 0.611515
lowerneck -9.53241 -1.52794 2.87558
upperneck -2.95849 -2.31971 1.12029
head 0.640987 -1.16336 -0.207171
lclavicle 7.08792e-14 1.55052e-14 0
lhumerus -41.4501 -12.9183 96.3556
lradius 39.7835 -0 0
lwrist 6.33994 0 0
lhand -11.7875 3.32994 -0.00296265
lfingers 7.12502 -0 0
lthumb 14.2618 32.8202 -0.00284535
rclavicle 7.08792e-14 1.55052e-14 0
rhumerus -40.2292 -5.02253 -89.6718
rradius 39.0556 -0 0
rwrist 10.8562 0 0
rhand -27.0211 -20.0847 0.00538038
rfingers 7.12502 -0 0
rthumb -0.440486 -50.0658 0.00515547
